<svg width="216" height="37" viewBox="0 0 216 37" fill="none" xmlns="http://www.w3.org/2000/svg">
<path d="M210.859 22.181H215.966C215.863 23.8547 215.402 25.3405 214.582 26.6385C213.774 27.9365 212.641 28.9498 211.184 29.6785C209.738 30.4072 207.996 30.7716 205.958 30.7716C204.364 30.7716 202.935 30.4983 201.671 29.9518C200.407 29.3939 199.325 28.5969 198.426 27.5608C197.538 26.5247 196.86 25.2722 196.394 23.8034C195.927 22.3347 195.693 20.6894 195.693 18.8677V17.1427C195.693 15.321 195.932 13.6758 196.411 12.207C196.9 10.7268 197.595 9.4687 198.494 8.43259C199.405 7.39648 200.492 6.59947 201.756 6.04157C203.02 5.48366 204.432 5.20471 205.992 5.20471C208.064 5.20471 209.812 5.58044 211.235 6.33191C212.67 7.08337 213.78 8.11948 214.565 9.44024C215.362 10.761 215.841 12.2639 216 13.949H210.876C210.819 12.9471 210.62 12.0988 210.279 11.4043C209.937 10.6984 209.419 10.1689 208.724 9.81597C208.041 9.45162 207.13 9.26945 205.992 9.26945C205.138 9.26945 204.392 9.42885 203.754 9.74765C203.117 10.0665 202.582 10.5504 202.149 11.1993C201.716 11.8483 201.392 12.6681 201.176 13.6587C200.971 14.6379 200.868 15.7878 200.868 17.1086V18.8677C200.868 20.1543 200.965 21.2872 201.159 22.2664C201.352 23.2342 201.648 24.0539 202.047 24.7257C202.457 25.3861 202.98 25.8871 203.618 26.2286C204.267 26.5588 205.047 26.7239 205.958 26.7239C207.028 26.7239 207.91 26.5531 208.605 26.2115C209.299 25.87 209.829 25.3633 210.193 24.6915C210.569 24.0198 210.791 23.1829 210.859 22.181Z" fill="white"/>
<path d="M194.635 26.4338V30.4302H182.116V26.4338H194.635ZM183.772 5.5636V30.4302H178.649V5.5636H183.772Z" fill="white"/>
<path d="M165.789 21.5664H159.452V17.5699H165.789C166.768 17.5699 167.565 17.4105 168.18 17.0917C168.795 16.7616 169.244 16.3061 169.529 15.7254C169.814 15.1448 169.956 14.4901 169.956 13.7614C169.956 13.0213 169.814 12.3325 169.529 11.6949C169.244 11.0573 168.795 10.5449 168.18 10.1578C167.565 9.77066 166.768 9.5771 165.789 9.5771H161.229V30.4302H156.105V5.5636H165.789C167.736 5.5636 169.404 5.91656 170.793 6.62248C172.193 7.31701 173.263 8.27912 174.004 9.50878C174.744 10.7385 175.114 12.1446 175.114 13.7272C175.114 15.3326 174.744 16.7217 174.004 17.8944C173.263 19.0672 172.193 19.9724 170.793 20.61C169.404 21.2476 167.736 21.5664 165.789 21.5664Z" fill="white"/>
<path d="M145.414 30.7717C143.979 30.7717 142.692 30.544 141.554 30.0886C140.415 29.6217 139.447 28.9784 138.65 28.1587C137.865 27.3389 137.261 26.3882 136.84 25.3065C136.419 24.2135 136.208 23.0521 136.208 21.8225V21.1393C136.208 19.7389 136.407 18.4579 136.806 17.2966C137.204 16.1352 137.774 15.1276 138.514 14.2737C139.265 13.4197 140.176 12.765 141.246 12.3096C142.317 11.8428 143.524 11.6094 144.867 11.6094C146.176 11.6094 147.338 11.8257 148.351 12.2584C149.365 12.691 150.213 13.3059 150.896 14.1029C151.59 14.8999 152.114 15.8563 152.467 16.9721C152.82 18.0765 152.997 19.3062 152.997 20.6611V22.7105H138.309V19.4314H148.163V19.0557C148.163 18.3726 148.038 17.7634 147.788 17.2283C147.548 16.6818 147.184 16.2491 146.695 15.9303C146.205 15.6115 145.579 15.4521 144.816 15.4521C144.167 15.4521 143.609 15.5944 143.142 15.8791C142.675 16.1637 142.294 16.5622 141.998 17.0746C141.713 17.5869 141.497 18.1904 141.349 18.8849C141.212 19.5681 141.144 20.3195 141.144 21.1393V21.8225C141.144 22.5625 141.246 23.2457 141.451 23.8719C141.668 24.4981 141.969 25.0389 142.357 25.4944C142.755 25.9498 143.233 26.3028 143.791 26.5533C144.36 26.8038 145.004 26.929 145.721 26.929C146.609 26.929 147.435 26.7582 148.197 26.4166C148.972 26.0637 149.638 25.5342 150.196 24.8283L152.587 27.4243C152.2 27.9822 151.67 28.5173 150.998 29.0297C150.338 29.542 149.541 29.9633 148.607 30.2935C147.674 30.6123 146.609 30.7717 145.414 30.7717Z" fill="white"/>
<path d="M129.359 15.9815V30.4301H124.441V11.9509H129.069L129.359 15.9815ZM134.927 11.8314L134.842 16.3914C134.603 16.3573 134.312 16.3288 133.971 16.306C133.641 16.2719 133.339 16.2548 133.066 16.2548C132.371 16.2548 131.768 16.3459 131.255 16.528C130.754 16.6988 130.333 16.955 129.991 17.2966C129.661 17.6382 129.411 18.0537 129.24 18.5433C129.081 19.0329 128.989 19.5908 128.967 20.2171L127.976 19.9096C127.976 18.7141 128.096 17.6154 128.335 16.6134C128.574 15.6001 128.921 14.7177 129.377 13.9662C129.843 13.2148 130.413 12.6341 131.084 12.2242C131.756 11.8143 132.525 11.6094 133.39 11.6094C133.663 11.6094 133.942 11.6321 134.227 11.6777C134.512 11.7118 134.745 11.7631 134.927 11.8314Z" fill="white"/>
<path d="M103.912 21.3784V21.0198C103.912 19.6648 104.106 18.4181 104.493 17.2795C104.88 16.1295 105.444 15.1333 106.184 14.2907C106.924 13.4482 107.835 12.7935 108.916 12.3267C109.998 11.8485 111.239 11.6094 112.639 11.6094C114.04 11.6094 115.287 11.8485 116.38 12.3267C117.473 12.7935 118.389 13.4482 119.129 14.2907C119.881 15.1333 120.45 16.1295 120.837 17.2795C121.224 18.4181 121.418 19.6648 121.418 21.0198V21.3784C121.418 22.7219 121.224 23.9687 120.837 25.1187C120.45 26.2572 119.881 27.2535 119.129 28.1074C118.389 28.95 117.478 29.6047 116.397 30.0715C115.315 30.5383 114.074 30.7717 112.674 30.7717C111.273 30.7717 110.026 30.5383 108.933 30.0715C107.852 29.6047 106.935 28.95 106.184 28.1074C105.444 27.2535 104.88 26.2572 104.493 25.1187C104.106 23.9687 103.912 22.7219 103.912 21.3784ZM108.831 21.0198V21.3784C108.831 22.1526 108.899 22.8756 109.036 23.5474C109.172 24.2192 109.389 24.8112 109.685 25.3236C109.992 25.8246 110.391 26.2174 110.88 26.502C111.37 26.7867 111.968 26.929 112.674 26.929C113.357 26.929 113.943 26.7867 114.433 26.502C114.922 26.2174 115.315 25.8246 115.611 25.3236C115.907 24.8112 116.123 24.2192 116.26 23.5474C116.408 22.8756 116.482 22.1526 116.482 21.3784V21.0198C116.482 20.2683 116.408 19.5624 116.26 18.902C116.123 18.2302 115.901 17.6382 115.594 17.1258C115.298 16.6021 114.905 16.1922 114.416 15.8961C113.926 15.6001 113.334 15.4521 112.639 15.4521C111.945 15.4521 111.353 15.6001 110.863 15.8961C110.385 16.1922 109.992 16.6021 109.685 17.1258C109.389 17.6382 109.172 18.2302 109.036 18.902C108.899 19.5624 108.831 20.2683 108.831 21.0198Z" fill="white"/>
<path d="M94.0918 26.929C94.6953 26.929 95.2304 26.8151 95.6972 26.5874C96.164 26.3483 96.5284 26.0181 96.7902 25.5969C97.0635 25.1642 97.2058 24.6575 97.2172 24.0768H101.846C101.834 25.3748 101.487 26.5305 100.804 27.5438C100.121 28.5458 99.204 29.3371 98.0541 29.9178C96.9041 30.4871 95.6175 30.7717 94.1943 30.7717C92.7597 30.7717 91.5072 30.5326 90.437 30.0544C89.3781 29.5762 88.4957 28.9158 87.7898 28.0733C87.0838 27.2193 86.5544 26.2288 86.2014 25.1016C85.8485 23.963 85.672 22.7447 85.672 21.4467V20.9514C85.672 19.6421 85.8485 18.4238 86.2014 17.2966C86.5544 16.158 87.0838 15.1674 87.7898 14.3249C88.4957 13.471 89.3781 12.8049 90.437 12.3267C91.4958 11.8485 92.7369 11.6094 94.1601 11.6094C95.6744 11.6094 97.0009 11.8997 98.1395 12.4804C99.2894 13.0611 100.189 13.8922 100.838 14.9739C101.498 16.0442 101.834 17.3137 101.846 18.7824H97.2172C97.2058 18.1676 97.0749 17.6097 96.8244 17.1087C96.5853 16.6077 96.2323 16.2092 95.7655 15.9132C95.3101 15.6058 94.7465 15.4521 94.0747 15.4521C93.3574 15.4521 92.7711 15.6058 92.3156 15.9132C91.8602 16.2092 91.5072 16.6191 91.2567 17.1429C91.0063 17.6552 90.8298 18.2416 90.7273 18.902C90.6362 19.551 90.5907 20.2341 90.5907 20.9514V21.4467C90.5907 22.164 90.6362 22.8529 90.7273 23.5133C90.8184 24.1736 90.9892 24.76 91.2397 25.2724C91.5015 25.7847 91.8602 26.1889 92.3156 26.4849C92.7711 26.781 93.3631 26.929 94.0918 26.929Z" fill="white"/>
<path d="M82.3932 4.19739V30.4303H77.4575V4.19739H82.3932Z" fill="white"/>
<path d="M74.5198 26.4338V30.4302H61.2838V26.4338H74.5198ZM62.9575 5.5636V30.4302H57.8339V5.5636H62.9575ZM72.7948 15.6913V19.5852H61.2838V15.6913H72.7948ZM74.5027 5.5636V9.5771H61.2838V5.5636H74.5027Z" fill="white"/>
<path fill-rule="evenodd" clip-rule="evenodd" d="M16.4394 18.8876L16.4394 3.8474C16.4394 1.72248 18.162 -9.73501e-05 20.2869 -9.7443e-05L38.475 -9.8238e-05C40.6 -9.83309e-05 42.3225 1.72248 42.3225 3.8474L42.3225 18.8876C42.3225 21.0125 40.6 22.7351 38.475 22.7351L20.2869 22.7351C18.162 22.7351 16.4394 21.0125 16.4394 18.8876ZM19.2376 18.8876C19.2376 19.4671 19.7074 19.9369 20.2869 19.9369L38.475 19.9369C39.0546 19.9369 39.5244 19.4671 39.5244 18.8876L39.5244 3.8474C39.5244 3.26788 39.0546 2.79808 38.475 2.79808L20.2869 2.79808C19.7074 2.79808 19.2376 3.26788 19.2376 3.8474L19.2376 18.8876Z" fill="white"/>
<path fill-rule="evenodd" clip-rule="evenodd" d="M-1.68179e-07 32.529L-8.25608e-07 17.4888C-9.18491e-07 15.3638 1.72258 13.6413 3.84749 13.6413L22.0357 13.6413C24.1606 13.6413 25.8832 15.3638 25.8832 17.4888L25.8832 32.529C25.8832 34.6539 24.1606 36.3765 22.0357 36.3765L3.8475 36.3765C1.72258 36.3765 -7.52965e-08 34.6539 -1.68179e-07 32.529ZM2.79818 32.529C2.79818 33.1085 3.26797 33.5783 3.8475 33.5783L22.0357 33.5783C22.6152 33.5783 23.085 33.1085 23.085 32.529L23.085 17.4888C23.085 16.9092 22.6152 16.4394 22.0357 16.4394L3.84749 16.4394C3.26797 16.4394 2.79818 16.9092 2.79818 17.4888L2.79818 32.529Z" fill="white"/>
<path fill-rule="evenodd" clip-rule="evenodd" d="M27.9816 32.529L27.9816 28.6815C27.9816 26.5566 29.7042 24.834 31.8291 24.834L38.4748 24.834C40.5997 24.834 42.3223 26.5566 42.3223 28.6815L42.3223 32.529C42.3223 34.6539 40.5997 36.3765 38.4748 36.3765L31.8291 36.3765C29.7042 36.3765 27.9816 34.6539 27.9816 32.529ZM30.7798 32.529C30.7798 33.1085 31.2496 33.5783 31.8291 33.5783L38.4748 33.5783C39.0543 33.5783 39.5241 33.1085 39.5241 32.529L39.5241 28.6815C39.5241 28.102 39.0543 27.6322 38.4748 27.6322L31.8291 27.6322C31.2496 27.6322 30.7798 28.102 30.7798 28.6815L30.7798 32.529Z" fill="#63D23A"/>
</svg>
