<svg width="25" height="21" viewBox="0 0 25 21" fill="none" xmlns="http://www.w3.org/2000/svg">
<path d="M18.5388 19.8752C18.3484 19.7726 17.0228 18.8307 15.5931 17.782C14.1634 16.7333 12.9292 15.8753 12.8505 15.8753C12.7719 15.8753 12.0319 16.5153 11.2062 17.2974C10.1382 18.3092 9.62876 18.7362 9.44079 18.7773C9.29547 18.809 9.14614 18.8033 9.10894 18.7645C9.07175 18.7256 9.12874 17.4666 9.23559 15.9666C9.42249 13.3429 9.43723 13.2324 9.62393 13.055C9.73066 12.9535 11.9928 10.9219 14.6509 8.54019C17.309 6.15848 19.5709 4.11536 19.6774 3.99991C19.8537 3.80879 19.8593 3.77832 19.7396 3.65929C19.6323 3.55248 19.5629 3.5456 19.3602 3.62171C19.2238 3.67294 16.2474 5.50901 12.746 7.70186C9.24466 9.89472 6.33409 11.6889 6.27809 11.6889C6.03536 11.6889 0.548716 9.93248 0.360465 9.79451C0.0812461 9.58988 -0.0566941 9.30137 0.0218397 9.08626C0.157396 8.71497 0.760204 8.40181 2.94762 7.56632C4.15988 7.10329 6.89532 6.05541 9.02639 5.2377C22.59 0.0332142 22.679 0 23.0703 0C23.5416 0 23.8792 0.289861 24.0219 0.817127C24.1393 1.25084 24.205 0.900336 22.5669 8.58013C22.2654 9.99357 21.6427 12.9182 21.1831 15.0793C20.7236 17.2404 20.2897 19.1524 20.219 19.3282C19.9334 20.0383 19.2529 20.2599 18.5388 19.8752V19.8752Z" fill="#5B5B5B"/>
</svg>
