<svg width="23" height="17" viewBox="0 0 23 17" fill="none" xmlns="http://www.w3.org/2000/svg">
<path d="M21.8998 2.51806C21.6452 1.52749 20.8978 0.750077 19.9483 0.486761C18.2271 0.00610352 11.3262 0.00610352 11.3262 0.00610352C11.3262 0.00610352 4.42522 0.00610352 2.70403 0.486761C1.75454 0.750077 1.00707 1.52749 0.752532 2.51806C0.291931 4.31112 0.291931 8.04771 0.291931 8.04771C0.291931 8.04771 0.291931 11.7843 0.752532 13.5774C1.00707 14.5637 1.75454 15.3119 2.70403 15.5752C4.42522 16.0559 11.3262 16.0559 11.3262 16.0559C11.3262 16.0559 18.2271 16.0559 19.9483 15.5752C20.8978 15.3119 21.6452 14.5637 21.8998 13.5774C22.3604 11.7843 22.3604 8.04771 22.3604 8.04771C22.3604 8.04771 22.3604 4.30694 21.8998 2.51806ZM9.06759 11.4416V4.65385L14.8332 8.04771L9.06759 11.4416Z" fill="#5B5B5B"/>
</svg>
