<svg width="21" height="21" viewBox="0 0 21 21" fill="none" xmlns="http://www.w3.org/2000/svg">
<g clip-path="url(#clip0_3001_9)">
<path fill-rule="evenodd" clip-rule="evenodd" d="M10.5579 0C6.42005 0 3.5779 0 2.11503 1.46287C0.652161 2.92574 0.652161 5.93507 0.652161 9.90572C5.08257 9.78033 7.13058 9.65494 8.76064 8.06668C10.3071 6.47842 10.4325 4.43041 10.5579 0Z" fill="#5B5B5B"/>
<path fill-rule="evenodd" clip-rule="evenodd" d="M2.11503 18.5993C0.652161 17.1365 0.652161 14.1271 0.652161 10.1565C5.08257 10.2819 7.13058 10.4073 8.76064 11.9955C10.3489 13.6256 10.4743 15.6318 10.5997 20.104C6.42005 20.0622 3.5779 20.0622 2.11503 18.5993Z" fill="#5B5B5B"/>
<path fill-rule="evenodd" clip-rule="evenodd" d="M10.8087 20.0623C10.9341 15.6319 11.0595 13.5838 12.6478 11.9538C14.2778 10.3655 16.284 10.2401 20.7562 10.1147C20.7562 14.1272 20.7562 17.0947 19.2934 18.5994C17.7887 20.0623 14.9465 20.0623 10.8087 20.0623Z" fill="#5B5B5B"/>
<path fill-rule="evenodd" clip-rule="evenodd" d="M10.8087 0C10.9341 4.43041 11.0595 6.47842 12.6478 8.10848C14.2778 9.69674 16.284 9.82213 20.7562 9.94751C20.7562 5.93507 20.7562 2.96754 19.2934 1.46287C17.7887 0 14.9465 0 10.8087 0Z" fill="#5B5B5B"/>
</g>
<defs>
<clipPath id="clip0_3001_9">
<rect width="20.0622" height="20.0622" fill="white" transform="translate(0.652161)"/>
</clipPath>
</defs>
</svg>
