<svg width="155" height="46" viewBox="0 0 155 46" fill="none" xmlns="http://www.w3.org/2000/svg">
<rect x="0.5" y="0.5" width="154" height="45" rx="2.5" stroke="#5B5B5B"/>
<path d="M32.1482 12.65H13.7778C13.1688 12.65 12.5847 12.8923 12.1541 13.3237C11.7234 13.755 11.4815 14.34 11.4815 14.95V26.45C11.4815 27.715 12.5148 28.75 13.7778 28.75H22.676V32.775H16.9352C16.7068 32.775 16.4878 32.8659 16.3263 33.0276C16.1648 33.1894 16.0741 33.4088 16.0741 33.6375C16.0741 33.8663 16.1648 34.0857 16.3263 34.2474C16.4878 34.4092 16.7068 34.5 16.9352 34.5H30.1389C30.3673 34.5 30.5863 34.4092 30.7478 34.2474C30.9093 34.0857 31 33.8663 31 33.6375C31 33.4088 30.9093 33.1894 30.7478 33.0276C30.5863 32.8659 30.3673 32.775 30.1389 32.775H24.3982V28.75H32.1482C32.7572 28.75 33.3413 28.5077 33.7719 28.0764C34.2025 27.645 34.4445 27.06 34.4445 26.45V14.95C34.4445 14.34 34.2025 13.755 33.7719 13.3237C33.3413 12.8923 32.7572 12.65 32.1482 12.65Z" fill="#428D26"/>
<path d="M16.5908 22.425C16.4723 22.5969 16.4202 22.806 16.444 23.0134C16.4678 23.2209 16.5659 23.4127 16.7202 23.5532C16.8745 23.6936 17.0744 23.7733 17.2829 23.7773C17.4913 23.7813 17.6942 23.7095 17.8537 23.575L16.5908 22.425ZM21.4015 18.4L22.033 17.825C21.9524 17.738 21.8547 17.6685 21.746 17.621C21.6373 17.5735 21.5201 17.5489 21.4015 17.5489C21.2829 17.5489 21.1656 17.5735 21.057 17.621C20.9483 17.6685 20.8506 17.738 20.77 17.825L21.4015 18.4ZM24.5245 21.85L23.893 22.425C23.9736 22.5121 24.0713 22.5816 24.1799 22.6291C24.2886 22.6766 24.4059 22.7012 24.5245 22.7012C24.643 22.7012 24.7603 22.6766 24.869 22.6291C24.9776 22.5816 25.0753 22.5121 25.1559 22.425L24.5245 21.85ZM29.3467 17.825C29.4758 17.6528 29.5359 17.4383 29.5151 17.2239C29.4944 17.0095 29.3942 16.8106 29.2344 16.6664C29.0746 16.5222 28.8667 16.4431 28.6517 16.4447C28.4366 16.4463 28.2299 16.5285 28.0722 16.675L29.3352 17.825H29.3467ZM17.8652 23.575L22.033 18.975L20.77 17.825L16.5908 22.425L17.8537 23.575H17.8652ZM20.7585 18.975L23.893 22.425L25.1559 21.275L22.033 17.825L20.77 18.975H20.7585ZM25.1674 22.425L29.3352 17.825L28.0722 16.675L23.893 21.275L25.1559 22.425H25.1674Z" fill="#101010"/>
<path d="M47.6487 15.2976C49.3921 15.2976 50.6996 14.2318 50.9487 12.6332V12.5698H49.7283V12.6332C49.417 13.6482 48.6947 14.2191 47.6487 14.2191C46.1792 14.2191 45.2328 13.0138 45.2328 11.1615C45.2328 9.28374 46.1792 8.11649 47.6487 8.11649C48.7072 8.11649 49.4419 8.68743 49.7034 9.6263L49.7283 9.74048H50.9611V9.68974C50.7121 8.09112 49.3921 7 47.6611 7C45.4196 7 44 8.59862 44 11.1488C44 13.7116 45.4196 15.323 47.6611 15.323L47.6487 15.2976ZM53.626 12.5571L55.743 15.1707H57.2125L54.6845 12.0623L57.1128 9.30911H55.7181L53.626 11.7197H53.4268V9.30911H52.2438V15.1707H53.4268V12.5571H53.626ZM59.7528 15.2722C60.5125 15.2722 61.1725 14.8789 61.5087 14.2572H61.5336V15.1707H62.7166V11.1234C62.7166 9.95617 61.8325 9.19493 60.4253 9.19493C59.0057 9.19493 58.1464 9.96886 58.0592 10.9712V11.0346H59.18V10.9839C59.2796 10.5144 59.703 10.1972 60.3879 10.1972C61.1226 10.1972 61.5336 10.5779 61.5336 11.2249V11.669L59.9645 11.7578C58.5947 11.8466 57.8226 12.4683 57.8226 13.496C57.8226 14.5617 58.5947 15.2722 59.7528 15.2722ZM59.0181 13.4706C59.0181 12.9631 59.4166 12.6459 60.1264 12.6078L61.5336 12.519V12.9758C61.5336 13.737 60.9109 14.308 60.0766 14.308C59.4415 14.308 59.0181 13.9908 59.0181 13.4706ZM68.8309 15.1707V9.30911H67.6604V11.7197C67.4113 11.9735 66.9506 12.1384 66.4774 12.1384C65.6679 12.1384 65.2321 11.7578 65.2321 10.9585V9.30911H64.0615V11.098C64.0615 12.3668 64.8087 13.1788 66.166 13.1788C66.7389 13.1788 67.2868 12.9885 67.623 12.6459H67.6604V15.1707H68.8309ZM72.0313 15.2722C72.7909 15.2722 73.4509 14.8789 73.7872 14.2572H73.8121V15.1707H74.9951V11.1234C74.9951 9.95617 74.1109 9.19493 72.7038 9.19493C71.2841 9.19493 70.4249 9.96886 70.3377 10.9712V11.0346H71.4585V10.9839C71.5581 10.5144 71.9815 10.1972 72.6664 10.1972C73.4011 10.1972 73.8121 10.5779 73.8121 11.2249V11.669L72.243 11.7578C70.8732 11.8466 70.1011 12.4683 70.1011 13.496C70.1011 14.5617 70.8732 15.2722 72.0313 15.2722ZM71.2966 13.4706C71.2966 12.9631 71.6951 12.6459 72.4049 12.6078L73.8121 12.519V12.9758C73.8121 13.737 73.1894 14.308 72.3551 14.308C71.72 14.308 71.2966 13.9908 71.2966 13.4706ZM80.7608 9.30911H75.9789V10.2607H77.7721V15.1707H78.9551V10.2607H80.7608V9.30911ZM81.8442 15.1707H84.123C85.4555 15.1707 86.3147 14.3841 86.3147 13.1407C86.3147 11.8973 85.4555 11.1107 84.123 11.1107H83.0272V9.3218H81.8442V15.1707ZM84.0109 12.075C84.6834 12.075 85.1068 12.4937 85.1068 13.1407C85.1068 13.7878 84.6834 14.2191 84.0109 14.2191H83.0272V12.0623H84.0109V12.075ZM44.6475 36.7393H49.4543C53.3894 36.7393 55.7057 34.2526 55.7057 30.0023V29.9896C55.7057 25.752 53.377 23.3287 49.4543 23.3287H44.6475V36.7393ZM47.0011 34.7093V25.3587H49.2053C51.8204 25.3587 53.3147 27.0081 53.3147 29.9896V30.015C53.3147 33.06 51.8577 34.7093 49.2053 34.7093H47.0011ZM61.2347 36.9296C63.7502 36.9296 65.1823 35.4072 65.4687 33.8847L65.506 33.7958H63.3891L63.3641 33.8593C63.14 34.519 62.4053 35.128 61.2721 35.128C59.8026 35.128 58.8687 34.113 58.8313 32.3749H65.5932V31.639C65.5932 28.6701 63.8872 26.6909 61.1102 26.6909C58.3581 26.6909 56.5774 28.7209 56.5774 31.8293V31.842C56.5774 34.9758 58.3208 36.9296 61.2347 36.9296ZM61.1475 28.4925C62.3555 28.4925 63.2272 29.2791 63.3891 30.8397H58.8562C59.043 29.3172 59.9396 28.4925 61.1475 28.4925ZM70.4747 36.9296C72.8408 36.9296 74.5219 35.6863 74.5219 33.8339V33.8212C74.5219 32.3875 73.7498 31.5882 71.7574 31.1315L70.1385 30.7762C69.1423 30.5352 68.7687 30.1672 68.7687 29.5963C68.7687 28.8731 69.3913 28.391 70.3875 28.391C71.4585 28.391 72.0687 28.9746 72.1808 29.7612V29.8374H74.2977V29.7359C74.2106 28.0358 72.8034 26.6909 70.4 26.6909C68.0589 26.6909 66.5147 27.8962 66.5147 29.7105C66.5147 31.1695 67.4487 32.0957 69.3041 32.5017L70.9106 32.8824C71.9068 33.1107 72.243 33.4406 72.243 34.0242V34.0496C72.243 34.7728 71.583 35.2295 70.4747 35.2295C69.3291 35.2295 68.694 34.722 68.5321 33.872L68.5072 33.7958H66.2657L66.2781 33.872C66.4774 35.7117 67.9343 36.9296 70.4747 36.9296ZM75.7049 36.7393H77.9713V33.3137L78.7434 32.5017L81.7943 36.7393H84.4094L80.4245 31.1315L84.26 26.8939H81.6449L78.0211 30.9792H77.9713V23.3287H75.7049V36.7393ZM88.5064 36.9296C88.9672 36.9296 89.3781 36.8916 89.6272 36.8535V35.1153C89.4777 35.1153 89.3034 35.1534 89.0792 35.1534C88.2574 35.1534 87.834 34.8489 87.834 33.8847V28.6828H89.6272V26.8939H87.834V24.3945H85.5302V26.8939H84.1604V28.6701H85.5302V34.075C85.5302 36.105 86.4891 36.9296 88.5189 36.9296H88.5064ZM94.9196 36.9296C97.7464 36.9296 99.5894 35.0138 99.5894 31.8166V31.7912C99.5894 28.6194 97.7215 26.6909 94.9072 26.6909C92.0928 26.6909 90.2374 28.6321 90.2374 31.7912V31.8166C90.2374 35.0012 92.0679 36.9296 94.9196 36.9296ZM94.9196 35.0646C93.4751 35.0646 92.5536 33.8847 92.5536 31.8166V31.7912C92.5536 29.7612 93.4875 28.5559 94.9072 28.5559C96.3517 28.5559 97.2732 29.7359 97.2732 31.7912V31.8166C97.2732 33.872 96.3517 35.0646 94.9196 35.0646ZM100.673 39.9873H102.952V35.09H102.989C103.264 35.666 103.698 36.1479 104.238 36.4768C104.777 36.8058 105.399 36.9675 106.028 36.9423C108.443 36.9423 110 35.0012 110 31.842V31.8293C110 28.6574 108.443 26.7036 105.99 26.7036C104.62 26.7036 103.549 27.4268 103.002 28.6067H102.952V26.9066H100.673V40V39.9873ZM105.318 34.9885C103.911 34.9885 102.927 33.7451 102.927 31.8166C102.927 29.8754 103.923 28.6448 105.318 28.6448C106.775 28.6448 107.684 29.8501 107.684 31.8166C107.684 33.7705 106.775 34.9885 105.318 34.9885Z" fill="white"/>
</svg>
