<svg width="21" height="21" viewBox="0 0 21 21" fill="none" xmlns="http://www.w3.org/2000/svg">
<path fill-rule="evenodd" clip-rule="evenodd" d="M7.88947 0H14.0482C19.669 0 20.9999 1.33093 20.9999 6.95176V13.1105C20.9999 18.7313 19.669 20.0622 14.0482 20.0622H7.88947C2.26864 20.0622 0.937714 18.7313 0.937714 13.1105V6.95176C0.937714 1.33093 2.26864 0 7.88947 0ZM17.3612 6.90923C17.4604 6.59766 17.3612 6.37116 16.9223 6.37116H15.464C15.096 6.37116 14.9261 6.56937 14.827 6.78183C14.827 6.78183 14.0765 8.59405 13.0288 9.7693C12.689 10.1089 12.5333 10.2223 12.3493 10.2223C12.2502 10.2223 12.1228 10.1089 12.1228 9.79758V6.89498C12.1228 6.52704 12.0094 6.35711 11.6979 6.35711H9.40437C9.17787 6.35711 9.03623 6.52704 9.03623 6.69677C9.03623 7.05086 9.56005 7.13573 9.61663 8.1268V10.2789C9.61663 10.7461 9.53176 10.831 9.34779 10.831C8.85226 10.831 7.64872 9.00472 6.92669 6.92347C6.78505 6.5128 6.64341 6.35711 6.27527 6.35711H4.8029C4.37818 6.35711 4.30736 6.55533 4.30736 6.76759C4.30736 7.14997 4.8029 9.07534 6.61512 11.6238C7.81865 13.3654 9.53176 14.2997 11.075 14.2997C12.0094 14.2997 12.1228 14.0875 12.1228 13.7336V12.4167C12.1228 11.992 12.2077 11.9212 12.505 11.9212C12.7172 11.9212 13.0996 12.0345 13.9633 12.8699C14.9544 13.861 15.1243 14.314 15.6764 14.314H17.1347C17.5595 14.314 17.7577 14.1015 17.6445 13.6911C17.5171 13.2804 17.0356 12.6857 16.4127 11.9779C16.0728 11.5815 15.5633 11.1426 15.4074 10.9301C15.1951 10.647 15.2517 10.5337 15.4074 10.2789C15.3933 10.2789 17.1773 7.75866 17.3612 6.90923Z" fill="#5B5B5B"/>
</svg>
